<svg xmlns="http://www.w3.org/2000/svg" width="38.999" height="27" viewBox="0 0 38.999 27">
  <path id="Shape_831" data-name="Shape 831" d="M685.2,309a2.528,2.528,0,0,1-2.563-2.491V288.934a2.528,2.528,0,0,1,2.563-2.491h29.236A2.528,2.528,0,0,1,717,288.934v17.574A2.528,2.528,0,0,1,714.436,309Zm-.823-2.491a.812.812,0,0,0,.823.8h29.236a.812.812,0,0,0,.823-.8v-12.3H684.377ZM715.26,290.92v-1.985a.812.812,0,0,0-.823-.8H685.2a.812.812,0,0,0-.823.8v1.985Zm-34.7,13.637A2.528,2.528,0,0,1,678,302.065V284.491A2.528,2.528,0,0,1,680.564,282h29.244a2.529,2.529,0,0,1,2.564,2.491v1.1h-1.735v-1.1a.813.813,0,0,0-.824-.8H680.559a.812.812,0,0,0-.823.8V302.07a.812.812,0,0,0,.828.8h1.184v1.69Zm28.556-1.237v-2.81h2.89v2.81Zm-22.95,0v-1.24h7.64v1.24Zm0-1.91v-.9h6.31v.9Z" transform="translate(-678.001 -282)" opacity="0.302"/>
</svg>
