<svg xmlns="http://www.w3.org/2000/svg" width="49.691" height="28.573" viewBox="0 0 49.691 28.573">
  <path id="Shape_824" data-name="Shape 824" d="M993.191,529.187h-5.852v-4.332H959.486v5.43H951.3v1.81h8.182v3.675h-6.719v1.81h6.719v3.675h-5.419v1.81h5.419v6.91h5.2a3.992,3.992,0,0,0,7.911,0H988.91a3.992,3.992,0,0,0,7.911,0h4.173v-11.9C1000.886,532.7,997.851,529.187,993.191,529.187Zm-24.6,22.486a2.194,2.194,0,1,1,2.167-2.194A2.187,2.187,0,0,1,968.589,551.673Zm16.907-3.455H972.383a3.971,3.971,0,0,0-7.586,0H961.22v-21.5H985.5v21.5Zm7.261,3.455a2.194,2.194,0,1,1,2.168-2.194A2.187,2.187,0,0,1,992.757,551.673Zm6.286-3.455h-2.493a4.044,4.044,0,0,0-3.793-2.8,3.974,3.974,0,0,0-3.793,2.8h-1.68V531h5.852c3.631,0,5.852,2.742,5.852,7.13v10.091Z" transform="translate(-951.303 -524.855)" opacity="0.29"/>
</svg>
