<svg xmlns="http://www.w3.org/2000/svg" width="36.994" height="37.01" viewBox="0 0 36.994 37.01">
  <path id="Shape_1" data-name="Shape 1" d="M104.247,268.721c-.819-.14-8.235-1.6-16.3-9.675-8.043-8.05-9.534-15.518-9.68-16.358a7.445,7.445,0,0,1,1.761-7.14c1.795-1.8,3.484-2.674,5.155-2.674.072,0,.142,0,.213,0,2.281.11,4.028,1.875,5.437,3.587,2.074,2.521,2.142,4.706.227,7.307-.334.454-1.544,1.769-1.6,1.824a1.212,1.212,0,0,0-.227.895c.03.094.775,2.354,4.808,6.453,4.126,4.065,6.37,4.784,6.479,4.817a.711.711,0,0,0,.121.011,1.254,1.254,0,0,0,.74-.247c.013-.013,1.331-1.227,1.82-1.6l.09-.066a5.966,5.966,0,0,1,3.464-1.332,5.891,5.891,0,0,1,3.749,1.624c1.711,1.41,3.474,3.158,3.585,5.44.084,1.736-.788,3.494-2.667,5.373a7.3,7.3,0,0,1-5.14,2.021A7.815,7.815,0,0,1,104.247,268.721ZM81.214,236.738a5.777,5.777,0,0,0-1.313,5.57.844.844,0,0,1,.02.085c.012.075,1.317,7.563,9.212,15.464,7.917,7.923,15.377,9.207,15.449,9.218l.093.021a6.165,6.165,0,0,0,1.642.223,5.558,5.558,0,0,0,3.923-1.536c1.524-1.525,2.235-2.869,2.175-4.107-.079-1.628-1.549-3.048-2.975-4.223a4.313,4.313,0,0,0-2.683-1.246,4.38,4.38,0,0,0-2.558,1.075c-.259.194-1.138.983-1.678,1.48a2.852,2.852,0,0,1-1.873.688,2.276,2.276,0,0,1-.538-.06c-.1-.023-2.453-.644-6.8-4.819l0,0-.115-.108c-.119-.113-.548-.542-.666-.667l-.11-.115v0c-4.2-4.383-4.793-6.709-4.816-6.807a2.834,2.834,0,0,1,.626-2.414c.374-.4,1.266-1.391,1.48-1.68,1.463-1.988,1.421-3.311-.171-5.244-1.174-1.428-2.593-2.9-4.22-2.976-.049,0-.1,0-.146,0C83.993,234.555,82.661,235.29,81.214,236.738Zm32.238,14.921a.842.842,0,0,1-.6-1.028,13.46,13.46,0,0,0-3.488-13.021,13.461,13.461,0,0,0-13.01-3.49.853.853,0,0,1-1.028-.595.838.838,0,0,1,.594-1.028,15.152,15.152,0,0,1,18.554,18.566.839.839,0,0,1-.81.624A.805.805,0,0,1,113.452,251.659Zm-6.916-1.856a.828.828,0,0,1-.509-.391h0a.835.835,0,0,1-.083-.638,6.312,6.312,0,0,0-7.735-7.738.84.84,0,0,1-.435-1.623,7.993,7.993,0,0,1,9.79,9.8.854.854,0,0,1-.817.621A.8.8,0,0,1,106.536,249.8Z" transform="translate(-77.997 -231.981)" fill="#b6180d"/>
</svg>
