<svg xmlns="http://www.w3.org/2000/svg" width="39.53" height="40" viewBox="0 0 39.53 40">
  <path id="Shape_830" data-name="Shape 830" d="M680.729,558a.779.779,0,0,1-.775-.784V541.882h-1.178A.779.779,0,0,1,678,541.1v-4.68c0-.007,0-.013,0-.021s0-.022,0-.032,0-.041.006-.061,0-.018,0-.027c.005-.028.012-.055.019-.082,0,0,0,0,0,0a.9.9,0,0,1,.031-.087s0,0,0,0l3.789-8.581v-3.776a.779.779,0,0,1,.775-.783h6.883A9.508,9.508,0,0,1,692.7,519.5a9.343,9.343,0,0,1,10.164,0,9.508,9.508,0,0,1,3.188,3.456h6.883a.778.778,0,0,1,.775.783v3.9a.745.745,0,0,1-.008.112l3.757,8.34a.017.017,0,0,0,0,.006.8.8,0,0,1,.054.175c0,.008,0,.016,0,.025s.005.041.007.062,0,.023,0,.033,0,.015,0,.023v4.68a.779.779,0,0,1-.775.783H715.6v15.334a.78.78,0,0,1-.775.784Zm.775-1.568H714.05v-14.55h-2.834v11.532a.779.779,0,0,1-.775.784H685.113a.78.78,0,0,1-.776-.784V541.882H681.5Zm4.385-3.8h23.778V541.882H685.888Zm30.091-12.315V537.2H679.55v3.112H715.98Zm-36.01-4.68h35.58l-3.247-7.209H683.153Zm3.436-8.777h28.756v-2.332h-6.581a.773.773,0,0,1-.7-.444,7.958,7.958,0,0,0-2.854-3.26,7.8,7.8,0,0,0-8.49,0,7.956,7.956,0,0,0-2.853,3.26.774.774,0,0,1-.7.444h-6.582Zm19.462,23.673a.788.788,0,0,1,.035-1.107l2.181-2.067a.769.769,0,0,1,1.1.036.79.79,0,0,1-.035,1.108l-2.181,2.066a.767.767,0,0,1-1.1-.036Zm-1.426-2.407a.79.79,0,0,1,.035-1.108l1.169-1.108a.769.769,0,0,1,1.1.035.789.789,0,0,1-.035,1.108l-1.169,1.109a.77.77,0,0,1-1.1-.036Zm-9.323-.571a.789.789,0,0,1,.035-1.108l1.169-1.108a.769.769,0,0,1,1.1.035.79.79,0,0,1-.035,1.108l-1.169,1.109a.77.77,0,0,1-1.1-.036Zm-3-.829a.789.789,0,0,1,.035-1.108l2.18-2.067a.77.77,0,0,1,1.1.036.791.791,0,0,1-.035,1.108l-2.181,2.067a.77.77,0,0,1-1.1-.036Z" transform="translate(-678 -518)" opacity="0.29"/>
</svg>
